<?xml version="1.0" encoding="UTF-8"?>
<svg version="1.1" xmlns="http://www.w3.org/2000/svg" width="500" height="500">
<path d="M0 0 C165 0 330 0 500 0 C500 165 500 330 500 500 C335 500 170 500 0 500 C0 335 0 170 0 0 Z " fill="#FCABC6" transform="translate(0,0)"/>
<path d="M0 0 C165 0 330 0 500 0 C500 101.31 500 202.62 500 307 C498.68 305.35 497.36 303.7 496 302 C493.92163108 300.26848838 491.84721904 298.62099785 489.6875 297 C484.38733026 292.9349917 479.27174123 288.71667254 474.25 284.3125 C469.50457241 280.15732065 464.71609493 276.10539634 459.76171875 272.19921875 C456.11950897 269.29884519 452.52885725 266.3379705 448.9375 263.375 C448.20934082 262.77437744 447.48118164 262.17375488 446.73095703 261.55493164 C445.23308426 260.31903115 443.73536448 259.08294521 442.23779297 257.84667969 C438.66088205 254.8949282 435.08031669 251.94761867 431.5 249 C430.08331453 247.83335617 428.66664789 246.66668947 427.25 245.5 C426.54875 244.9225 425.8475 244.345 425.125 243.75 C394.66666667 218.66666667 364.20833333 193.58333333 333.75 168.5 C333.04842773 167.9222583 332.34685547 167.3445166 331.62402344 166.74926758 C330.21051797 165.58515646 328.79710616 164.4209316 327.38378906 163.2565918 C323.79452429 160.29987496 320.20354178 157.34528796 316.609375 154.39453125 C309.51618977 148.56778849 302.45316285 142.71220326 295.4621582 136.76318359 C291.5574443 133.44901072 287.58011479 130.23914368 283.56640625 127.05859375 C278.64912511 123.11429062 273.83022682 119.05008709 269 115 C269.70511719 114.29617187 270.41023438 113.59234375 271.13671875 112.8671875 C273.04209187 110.96248458 274.93969647 109.05046497 276.83203125 107.1328125 C281.77275083 102.13948835 286.72747878 97.27002851 292.0703125 92.703125 C304.65519178 81.59582264 318.54850336 67.83365169 320.3828125 50.3515625 C320.77502618 37.46080632 317.02175414 27.10373613 309 17 C299.39496077 7.52217984 289.46514419 3.74373863 276.21289062 3.7512207 C268.39876725 3.87408984 262.1997103 5.39047964 255.6875 9.8125 C252.31267532 12.05338359 252.31267532 12.05338359 249.4375 11.5625 C248.2309375 10.7890625 248.2309375 10.7890625 247 10 C245.88625 9.34 244.7725 8.68 243.625 8 C243.10164062 7.67 242.57828125 7.34 242.0390625 7 C236.36620192 4.21790746 230.81910577 3.63876041 224.625 3.6875 C223.87476563 3.69313965 223.12453125 3.6987793 222.3515625 3.70458984 C209.84339036 3.978749 200.45435063 9.71800563 191.85546875 18.66015625 C184.37676403 28.09119652 181.02572641 39.10443375 182 51 C184.59425298 69.04185028 197.17723447 79.7167914 209.5625 91.875 C211.16688592 93.4678739 212.7704087 95.06161766 214.37304688 96.65625 C215.91589235 98.18567734 217.45948636 99.71435003 219.00390625 101.2421875 C219.71656143 101.94745575 220.42921661 102.652724 221.16346741 103.37936401 C224.9728338 107.11658106 228.84458868 110.65083829 233 114 C229.52703868 118.63061509 225.66933503 122.0043404 221.11328125 125.5546875 C217.33844421 128.51961597 213.63756295 131.56762372 209.9375 134.625 C208.45703918 135.84636378 206.97657031 137.0677178 205.49609375 138.2890625 C204.75085449 138.90426758 204.00561523 139.51947266 203.23779297 140.15332031 C199.66088205 143.1050718 196.08031669 146.05238133 192.5 149 C191.08331453 150.16664383 189.66664789 151.33331053 188.25 152.5 C162.75 173.5 162.75 173.5 160.62402344 175.25073242 C159.21051797 176.41484354 157.79710616 177.5790684 156.38378906 178.7434082 C152.79452429 181.70012504 149.20354178 184.65471204 145.609375 187.60546875 C139.0578381 192.987271 132.52049232 198.38108818 126.0625 203.875 C121.71364726 207.5741605 117.30499057 211.18245094 112.83203125 214.73046875 C106.91430621 219.47281116 101.08591133 224.32561957 95.23779297 229.15332031 C91.66088205 232.1050718 88.08031669 235.05238133 84.5 238 C83.08331453 239.16664383 81.66664789 240.33331053 80.25 241.5 C37.75 276.5 37.75 276.5 35.62182617 278.25219727 C34.21519294 279.4108772 32.8090992 280.57021241 31.40356445 281.73022461 C27.71270151 284.77487586 24.01121301 287.80523293 20.29296875 290.81640625 C19.13667969 291.75709961 19.13667969 291.75709961 17.95703125 292.71679688 C16.48521652 293.91375463 15.01014122 295.10671851 13.53125 296.29492188 C6.79320101 301.78215997 6.79320101 301.78215997 3 309.4375 C3 313.86634764 4.2418761 315.61144778 7 319 C9.5036132 321.5036132 11.20852449 321.30979467 14.63671875 321.4609375 C21.06950409 320.20627854 26.06129308 315.47992934 30.8125 311.25 C32.04971511 310.16935109 33.28799965 309.08992535 34.52734375 308.01171875 C35.12401855 307.4914209 35.72069336 306.97112305 36.33544922 306.43505859 C39.22452794 303.94429815 42.21287445 301.58488046 45.20703125 299.22265625 C47.53200597 297.37243161 49.83767448 295.50325845 52.13671875 293.62109375 C52.86584473 293.02482178 53.5949707 292.4285498 54.34619141 291.81420898 C55.80958907 290.61631209 57.27153439 289.41663849 58.73193359 288.21508789 C59.39918457 287.66973389 60.06643555 287.12437988 60.75390625 286.5625 C61.35533447 286.06878906 61.9567627 285.57507813 62.57641602 285.06640625 C64 284 64 284 65 284 C65.00054477 285.07252109 65.00108953 286.14504217 65.00165081 287.2500639 C65.01603762 313.3306597 65.05901852 339.41108843 65.13209057 365.49158764 C65.16676352 378.10386787 65.19209913 390.71603854 65.19555664 403.32836914 C65.19859332 414.31955951 65.21904395 425.31055487 65.26052457 436.3016699 C65.28188303 442.12299317 65.29444046 447.94403901 65.28615379 453.76540184 C65.27863183 459.2426766 65.29436128 464.71938838 65.32806015 470.19655991 C65.33631576 472.2085269 65.33601721 474.22054964 65.32659721 476.23251152 C65.31501751 478.9771017 65.33402836 481.7198338 65.36076355 484.46427917 C65.35009029 485.26292316 65.33941703 486.06156715 65.32842034 486.88441247 C65.40227129 490.93994909 65.7883425 492.74508724 68.41495228 495.90848255 C69.6945509 496.94378369 69.6945509 496.94378369 71 498 C71.66 498.66 72.32 499.32 73 500 C48.91 500 24.82 500 0 500 C0 335 0 170 0 0 Z " fill="#27272A" transform="translate(0,0)"/>
<path d="M0 0 C3.32952954 1.28509586 5.75243521 3.79079629 8.37255859 6.14599609 C13.14172599 10.33905609 17.97014113 14.39117993 22.99755859 18.27099609 C28.45721522 22.50029678 33.72954114 26.9064984 38.9519043 31.42456055 C44.21702303 35.97767562 49.59057174 40.38738827 54.99755859 44.77099609 C63.61208624 51.80108975 72.19490835 58.86945548 80.77587891 65.94042969 C84.34917909 68.88467197 87.92340288 71.82779249 91.49755859 74.77099609 C92.91422996 75.93765705 94.33089662 77.10432373 95.74755859 78.27099609 C96.44880859 78.84849609 97.15005859 79.42599609 97.87255859 80.02099609 C99.99755859 81.77099609 102.12255859 83.52099609 104.24755859 85.27099609 C104.94913086 85.84873779 105.65070313 86.42647949 106.37353516 87.02172852 C107.78704063 88.18583963 109.20045243 89.35006449 110.61376953 90.5144043 C114.2030343 93.47112114 117.79401681 96.42570813 121.38818359 99.37646484 C128.4761496 105.19892025 135.53395314 111.05023107 142.52001953 116.99462891 C150.72022592 124.12978644 150.72022592 124.12978644 159.59865093 130.34515762 C162.41595787 133.19409244 162.59076872 134.9302438 162.64296514 138.86219478 C162.62840093 139.6793154 162.61383672 140.49643602 162.59883118 141.33831787 C162.6031033 142.21153222 162.60737543 143.08474658 162.61177701 143.98442197 C162.6200256 146.91607731 162.59249126 149.84630809 162.56518555 152.77783203 C162.56377548 154.87691718 162.56456624 156.97600479 162.56739807 159.0750885 C162.56883524 164.77943031 162.53939638 170.48324861 162.50452828 176.18746853 C162.47331507 182.14653827 162.47033801 188.10561943 162.46440125 194.0647583 C162.44884803 205.35180988 162.40779937 216.6386199 162.3576538 227.925565 C162.30180646 240.77423048 162.2742854 253.62290736 162.24917662 266.47166395 C162.19688491 292.90493952 162.10517449 319.33788387 161.99755859 345.77099609 C132.29755859 345.77099609 102.59755859 345.77099609 71.99755859 345.77099609 C71.95888672 335.43787109 71.95888672 335.43787109 71.91943359 324.89599609 C71.8942341 320.50273097 71.86787721 316.10953259 71.83740234 311.71630859 C71.78925828 304.76025234 71.74514224 297.80435079 71.7265625 290.84814453 C71.7112942 285.2328557 71.67667041 279.61797469 71.62924957 274.00286865 C71.61453996 271.87257454 71.60652365 269.74222217 71.60567474 267.61187744 C71.58749543 244.84259273 67.67202092 223.61417136 50.99755859 206.77099609 C36.77137754 194.2272806 20.39149962 185.93408788 1.12255859 186.33349609 C-0.58915527 186.35657837 -0.58915527 186.35657837 -2.33544922 186.38012695 C-20.20561181 186.78904641 -35.47568505 191.64005888 -49.00244141 203.77099609 C-49.76169922 204.44904297 -50.52095703 205.12708984 -51.30322266 205.82568359 C-64.7225782 218.50077236 -72.81926513 235.86849989 -73.38260937 254.30976486 C-73.47562033 259.33334579 -73.49946751 264.35604441 -73.51416016 269.38037109 C-73.53102983 271.5604146 -73.54918311 273.74044851 -73.56855774 275.92047119 C-73.6158153 281.62163291 -73.64578101 287.32275573 -73.67199707 293.02404785 C-73.70719978 299.88426568 -73.76414284 306.74433421 -73.81739044 313.60443115 C-73.89561962 323.99326647 -73.94644076 334.38191017 -74.00244141 344.77099609 C-103.70244141 344.77099609 -133.40244141 344.77099609 -164.00244141 344.77099609 C-164.38665245 317.3713592 -164.69960472 289.97391314 -164.88324833 262.57226372 C-164.97079553 249.84829949 -165.0900785 237.12613136 -165.28491211 224.40332031 C-165.45471161 213.30994156 -165.56411251 202.21786371 -165.60194582 191.12322152 C-165.62405347 185.25142617 -165.67574013 179.38335125 -165.79985237 173.51275253 C-165.91591503 167.97766445 -165.95071643 162.44779904 -165.92527199 156.91160965 C-165.92992053 154.88860334 -165.96336917 152.86540897 -166.02893448 150.84346008 C-166.48500005 136.04361314 -166.48500005 136.04361314 -162.37835383 130.63005304 C-158.41171749 126.5990754 -153.96171051 123.40677663 -149.24990833 120.30827165 C-145.46084363 117.7165376 -142.00495742 114.7317898 -138.50244141 111.77099609 C-137.08724914 110.60254139 -135.67075153 109.43566427 -134.25244141 108.27099609 C-133.55119141 107.69349609 -132.84994141 107.11599609 -132.12744141 106.52099609 C-91.75244141 73.27099609 -91.75244141 73.27099609 -89.62646484 71.52026367 C-88.21295937 70.35615256 -86.79954757 69.19192769 -85.38623047 68.02758789 C-81.7969657 65.07087105 -78.20598319 62.11628406 -74.61181641 59.16552734 C-68.06027951 53.78372509 -61.52293373 48.38990792 -55.06494141 42.89599609 C-50.71608867 39.1968356 -46.30743198 35.58854516 -41.83447266 32.04052734 C-38.17569775 29.10846083 -34.55728328 26.12893818 -30.93994141 23.14599609 C-30.22209473 22.55423584 -29.50424805 21.96247559 -28.76464844 21.3527832 C-24.91814831 18.18020621 -21.07480828 15.00383117 -17.23291016 11.82568359 C-16.46148682 11.18840332 -15.69006348 10.55112305 -14.89526367 9.89453125 C-13.41166317 8.66887184 -11.92903798 7.44203068 -10.44750977 6.21386719 C-9.77727783 5.66037598 -9.1070459 5.10688477 -8.41650391 4.53662109 C-7.82820801 4.04967773 -7.23991211 3.56273437 -6.63378906 3.06103516 C-2.41380556 -0.27604848 -2.41380556 -0.27604848 0 0 Z " fill="#27272A" transform="translate(252.00244140625,131.22900390625)"/>
<path d="M0 0 C10.74516137 8.18609723 18.06906476 19.66115816 20.88671875 32.94921875 C20.97996356 34.48603848 21.02405716 36.02625944 21.03147888 37.56588745 C21.03837738 38.48827209 21.04527588 39.41065674 21.05238342 40.36099243 C21.0549968 41.3657663 21.05761017 42.37054016 21.06030273 43.40576172 C21.06698975 44.46960083 21.07367676 45.53343994 21.08056641 46.6295166 C21.09461411 48.93976574 21.10650905 51.25002874 21.11651421 53.56029892 C21.13292673 57.21685573 21.15616466 60.87330984 21.18141174 64.52981567 C21.25218236 74.92623783 21.31231886 85.3227017 21.36352539 95.71923828 C21.39532375 102.07812656 21.43660061 108.43689633 21.48372078 114.79568863 C21.49973426 117.21895339 21.51205884 119.64224543 21.52062798 122.06554794 C21.53278733 125.45511656 21.55694011 128.84440674 21.58374023 132.23388672 C21.58432938 133.23461212 21.58491852 134.23533752 21.58552551 135.26638794 C21.63677756 140.16056054 21.74826443 144.43705648 23.88671875 148.94921875 C26.39667371 150.38845074 26.39667371 150.38845074 28.88671875 150.94921875 C28.88671875 151.27921875 28.88671875 151.60921875 28.88671875 151.94921875 C-9.72328125 151.94921875 -48.33328125 151.94921875 -88.11328125 151.94921875 C-86.62828125 150.95921875 -86.62828125 150.95921875 -85.11328125 149.94921875 C-82.29312358 147.8647925 -80.38506024 146.27113652 -79.65923882 142.74078178 C-79.48466316 139.9127184 -79.47552778 137.12402101 -79.51733398 134.29077148 C-79.51327545 133.21691696 -79.50921692 132.14306244 -79.5050354 131.03666687 C-79.49951805 128.70624724 -79.50552688 126.37577831 -79.52169609 124.04540825 C-79.54710734 120.34901494 -79.54231821 116.65373757 -79.52980042 112.95729065 C-79.50903467 105.1003112 -79.52872024 97.24367551 -79.55078125 89.38671875 C-79.57192215 80.30350252 -79.57634287 71.22064677 -79.55027962 62.13743782 C-79.54693489 58.5102648 -79.56809345 54.88378938 -79.59068298 51.25669861 C-79.58816925 49.00894015 -79.58460675 46.76118253 -79.57983398 44.51342773 C-79.59916237 43.01900146 -79.59916237 43.01900146 -79.61888123 41.49438477 C-79.52163293 27.65459027 -73.58713382 14.95561034 -64.11328125 4.94921875 C-45.14274349 -10.59957745 -21.01835545 -13.84521532 0 0 Z " fill="#27272A" transform="translate(280.11328125,348.05078125)"/>
<path d="M0 0 C3.85982246 1.81586985 6.86249406 4.27984494 10.0625 7.0625 C11.23377534 8.06710582 12.40565891 9.0710029 13.578125 10.07421875 C14.15884766 10.57228027 14.73957031 11.0703418 15.33789062 11.58349609 C19.49790967 15.12880022 23.75885674 18.55271176 28 22 C29.39083171 23.13776819 30.7814407 24.27580868 32.171875 25.4140625 C33.63533575 26.60947407 35.09887722 27.80478683 36.5625 29 C37.26608643 29.57669434 37.96967285 30.15338867 38.69458008 30.74755859 C39.35353271 31.28461426 40.01248535 31.82166992 40.69140625 32.375 C41.57614624 33.09816406 41.57614624 33.09816406 42.47875977 33.8359375 C45.49176076 36.14150463 48.12030381 36.38981542 51.8984375 36.35546875 C55.63703121 35.72310439 57.38542299 33.67682885 60 31 C60.99 29.515 60.99 29.515 62 28 C62 89.71 62 151.42 62 215 C38.57 215 15.14 215 -9 215 C-6.525 213.02 -6.525 213.02 -4 211 C-0.61361253 206.78754857 -0.56921763 202.78207537 -0.60127258 197.57817078 C-0.59462576 196.73268687 -0.58797893 195.88720296 -0.58113068 195.01609832 C-0.5624868 192.18468191 -0.56510691 189.35368757 -0.56762695 186.5222168 C-0.55861065 184.49194237 -0.54828376 182.46167339 -0.53674316 180.43141174 C-0.50913167 174.9194726 -0.49988298 169.40763663 -0.49388909 163.89563727 C-0.48451626 158.13536463 -0.45831374 152.37516938 -0.43388367 146.61494446 C-0.390185 135.70700836 -0.36165868 124.79908726 -0.33856028 113.89109021 C-0.31152669 101.47278638 -0.26761403 89.05456027 -0.22227156 76.63631189 C-0.12937702 51.09091671 -0.05771828 25.54549716 0 0 Z " fill="#27272A" transform="translate(438,285)"/>
<path d="M0 0 C5.13424566 2.25703473 9.03338258 5.85104028 13.08984375 9.66015625 C16.28468614 12.55672497 18.65907231 12.58941482 22.9375 12.51953125 C25.65831725 12.31586163 27.61824465 11.7521355 29.97265625 10.3671875 C30.39804687 9.43712891 30.39804687 9.43712891 30.83203125 8.48828125 C32.26172191 5.82964417 33.82503482 4.80975351 36.34765625 3.1796875 C37.11851562 2.67050781 37.889375 2.16132813 38.68359375 1.63671875 C43.03910867 -0.77888253 47.02209283 -1.04535945 51.97265625 -0.6328125 C58.71063696 1.41334412 62.31728686 5.52365581 65.97265625 11.3671875 C67.3639557 14.1497864 67.21782264 16.51275383 67.28515625 19.6171875 C67.34123047 21.29554687 67.34123047 21.29554687 67.3984375 23.0078125 C66.50396092 30.06515062 60.87551014 34.84726197 56.16015625 39.8046875 C55.27360352 40.74924805 55.27360352 40.74924805 54.36914062 41.71289062 C43.7231793 53.00898699 43.7231793 53.00898699 37.97265625 57.8671875 C34.68103584 60.70040043 31.6235432 63.69174299 28.58203125 66.7890625 C26.50855924 68.82227292 24.28582769 70.6147849 21.97265625 72.3671875 C17.98531462 70.73209057 15.12562037 67.96710593 12.03515625 65.0546875 C11.47248047 64.5299585 10.90980469 64.00522949 10.33007812 63.46459961 C4.54847841 58.03672984 -1.05185977 52.42954309 -6.62353516 46.78759766 C-9.51647369 43.86044698 -12.42496652 40.95155345 -15.37890625 38.0859375 C-16.12914062 37.35375 -16.879375 36.6215625 -17.65234375 35.8671875 C-18.40773437 35.135 -19.163125 34.4028125 -19.94140625 33.6484375 C-24.76145667 28.3770715 -25.64534632 24.45935125 -25.4296875 17.4375 C-24.65712205 11.54200056 -22.32806662 7.51660558 -18.0078125 3.48046875 C-12.16904269 -0.90627775 -7.02509798 -2.19280515 0 0 Z " fill="#28272B" transform="translate(230.02734375,26.6328125)"/>
</svg>
